<?xml version="1.0" encoding="UTF-8" standalone="no"?>
<!DOCTYPE svg PUBLIC "-//W3C//DTD SVG 1.1//EN" "http://www.w3.org/Graphics/SVG/1.1/DTD/svg11.dtd">
<svg width="100%" height="100%" viewBox="0 0 600 600" version="1.1" xmlns="http://www.w3.org/2000/svg" xmlns:xlink="http://www.w3.org/1999/xlink" xml:space="preserve" xmlns:serif="http://www.serif.com/" style="fill-rule:evenodd;clip-rule:evenodd;stroke-linejoin:round;stroke-miterlimit:2;">
    <g id="輝き" transform="matrix(0.892356,0,0,0.892356,36.941,-15.9516)">
        <g transform="matrix(2.39479,0,0,2.21494,-178.97,-182.183)">
            <ellipse cx="123.217" cy="151.049" rx="36.923" ry="35.804" style="fill:rgb(84,82,81);"/>
        </g>
        <g transform="matrix(1,0,0,1,8.39159,-32.1678)">
            <ellipse cx="120.479" cy="305.524" rx="112.5" ry="52" style="fill:rgb(84,82,81);"/>
        </g>
        <g transform="matrix(0.952046,-0.305955,0.305955,0.952046,-139.881,8.62199)">
            <ellipse cx="134.479" cy="430.524" rx="46.5" ry="84" style="fill:rgb(84,82,81);"/>
        </g>
        <g transform="matrix(1,0,0,1,2.39158,-65.1678)">
            <ellipse cx="130.479" cy="561.024" rx="72.5" ry="74.5" style="fill:rgb(84,82,81);"/>
        </g>
        <g transform="matrix(1,0,0,1,8.39159,-32.1678)">
            <ellipse cx="156.979" cy="651.76" rx="68" ry="60.235" style="fill:rgb(84,82,81);"/>
        </g>
        <g transform="matrix(0.954888,0.296965,-0.296965,0.954888,55.6063,-54.2336)">
            <ellipse cx="199.479" cy="158.995" rx="98.5" ry="51" style="fill:rgb(240,132,46);"/>
        </g>
        <g transform="matrix(0.931851,0.362841,-0.362841,0.931851,63.1962,-89.0819)">
            <ellipse cx="344.979" cy="135.857" rx="74" ry="90.137" style="fill:rgb(240,132,46);"/>
        </g>
        <g transform="matrix(1,0,0,1,-56.6084,-45.1678)">
            <ellipse cx="493.479" cy="301.22" rx="126.5" ry="55.5" style="fill:rgb(240,132,46);"/>
        </g>
        <g transform="matrix(1,0,0,1,-14.6084,-70.1678)">
            <ellipse cx="531.479" cy="368.22" rx="58.5" ry="54.5" style="fill:rgb(240,132,46);"/>
        </g>
        <g transform="matrix(0.973706,-0.227807,0.227807,0.973706,-124.722,44.48)">
            <ellipse cx="265.479" cy="614.97" rx="98.5" ry="37.5" style="fill:rgb(54,76,159);"/>
        </g>
        <g transform="matrix(0.982834,-0.184492,0.184492,0.982834,-148.417,-31.379)">
            <ellipse cx="407.479" cy="676.47" rx="71.5" ry="96" style="fill:rgb(54,76,159);"/>
        </g>
        <g transform="matrix(1,0,0,1,-34.6084,-22.1678)">
            <ellipse cx="468.979" cy="511.47" rx="48" ry="31" style="fill:rgb(54,76,159);"/>
        </g>
        <g transform="matrix(0.880625,0.473815,-0.473815,0.880625,260.236,-235.714)">
            <ellipse cx="533.979" cy="472.97" rx="46" ry="99.5" style="fill:rgb(54,76,159);"/>
        </g>
        <g transform="matrix(1,0,0,1,9.39159,-36.1678)">
            <circle cx="69.229" cy="310.72" r="24.25" style="fill:white;"/>
        </g>
        <g transform="matrix(1,0,0,1,8.39159,-48.1678)">
            <circle cx="98.229" cy="417.72" r="25.25" style="fill:white;"/>
        </g>
        <g transform="matrix(0.76,0,0,0.76,96.9465,101.545)">
            <circle cx="375.229" cy="646.72" r="56.25" style="fill:white;"/>
        </g>
        <g transform="matrix(1,0,0,1,8.39159,-32.1678)">
            <circle cx="427.729" cy="287.22" r="32.75" style="fill:white;"/>
        </g>
        <g id="cat" transform="matrix(0.0249784,0,0,0.0249784,346.146,563.341)">
            <path d="M1592.47,2584L2048.94,2584C2048.94,2519.11 2044.31,2506.24 1936.84,2506.24C1954.01,2454.74 2023.79,2330.13 2062.57,2330.13C2096.88,2330.13 2137.81,2332.02 2137.81,2410.3C2137.81,2499.17 2287.37,2642.46 2323.63,2584C2377.67,2496.88 2230.72,2523.45 2230.72,2313.35C2230.72,2025.92 2398.46,2066.84 2398.46,1905.36C2398.46,1824.57 2376.14,1813.66 2376.14,1755.9C2376.14,1679.56 2443.39,1683.99 2430.31,1620.7C2421.27,1576.98 2414.2,1541.92 2408.93,1489.05C2405.19,1451.54 2404,1411.55 2365.03,1413.16C2319.25,1415.05 2301.88,1495.63 2230.72,1501.41C2159.7,1507.18 2099.15,1440.95 2071.66,1450.41C2044.41,1459.79 2052.98,1533.73 2069.14,1586.24C2094.54,1668.78 2149.93,1776.1 2048.94,1792.26C1947.95,1808.42 1774.25,1824.58 1649.02,1990.2C1523.79,2155.82 1528.42,2350.19 1479.36,2410.31C1314.72,2612.08 1146,2529.23 1146,2697.11C1146,2772.27 1273.35,2826.38 1293.55,2802.14C1313.75,2777.9 1121.93,2705.68 1336.56,2620.36C1519.91,2547.46 1536.28,2532.58 1592.47,2584Z" style="fill:rgb(5,127,254);"/>
        </g>
        <g id="cat1" serif:id="cat" transform="matrix(-0.0249784,0,0,0.0249784,147.519,318.341)">
            <path d="M1592.47,2584L2048.94,2584C2048.94,2519.11 2044.31,2506.24 1936.84,2506.24C1954.01,2454.74 2023.79,2330.13 2062.57,2330.13C2096.88,2330.13 2137.81,2332.02 2137.81,2410.3C2137.81,2499.17 2287.37,2642.46 2323.63,2584C2377.67,2496.88 2230.72,2523.45 2230.72,2313.35C2230.72,2025.92 2398.46,2066.84 2398.46,1905.36C2398.46,1824.57 2376.14,1813.66 2376.14,1755.9C2376.14,1679.56 2443.39,1683.99 2430.31,1620.7C2421.27,1576.98 2414.2,1541.92 2408.93,1489.05C2405.19,1451.54 2404,1411.55 2365.03,1413.16C2319.25,1415.05 2301.88,1495.63 2230.72,1501.41C2159.7,1507.18 2099.15,1440.95 2071.66,1450.41C2044.41,1459.79 2052.98,1533.73 2069.14,1586.24C2094.54,1668.78 2149.93,1776.1 2048.94,1792.26C1947.95,1808.42 1774.25,1824.58 1649.02,1990.2C1523.79,2155.82 1528.42,2350.19 1479.36,2410.31C1314.72,2612.08 1146,2529.23 1146,2697.11C1146,2772.27 1273.35,2826.38 1293.55,2802.14C1313.75,2777.9 1121.93,2705.68 1336.56,2620.36C1519.91,2547.46 1536.28,2532.58 1592.47,2584Z" style="fill:rgb(5,127,254);"/>
        </g>
        <g id="cat2" serif:id="cat" transform="matrix(-0.0249784,0,0,0.0249784,120.519,222.341)">
            <path d="M1592.47,2584L2048.94,2584C2048.94,2519.11 2044.31,2506.24 1936.84,2506.24C1954.01,2454.74 2023.79,2330.13 2062.57,2330.13C2096.88,2330.13 2137.81,2332.02 2137.81,2410.3C2137.81,2499.17 2287.37,2642.46 2323.63,2584C2377.67,2496.88 2230.72,2523.45 2230.72,2313.35C2230.72,2025.92 2398.46,2066.84 2398.46,1905.36C2398.46,1824.57 2376.14,1813.66 2376.14,1755.9C2376.14,1679.56 2443.39,1683.99 2430.31,1620.7C2421.27,1576.98 2414.2,1541.92 2408.93,1489.05C2405.19,1451.54 2404,1411.55 2365.03,1413.16C2319.25,1415.05 2301.88,1495.63 2230.72,1501.41C2159.7,1507.18 2099.15,1440.95 2071.66,1450.41C2044.41,1459.79 2052.98,1533.73 2069.14,1586.24C2094.54,1668.78 2149.93,1776.1 2048.94,1792.26C1947.95,1808.42 1774.25,1824.58 1649.02,1990.2C1523.79,2155.82 1528.42,2350.19 1479.36,2410.31C1314.72,2612.08 1146,2529.23 1146,2697.11C1146,2772.27 1273.35,2826.38 1293.55,2802.14C1313.75,2777.9 1121.93,2705.68 1336.56,2620.36C1519.91,2547.46 1536.28,2532.58 1592.47,2584Z" style="fill:rgb(5,127,254);"/>
        </g>
        <g id="cat3" serif:id="cat" transform="matrix(0.0249784,0,0,0.0249784,390.146,196.341)">
            <path d="M1592.47,2584L2048.94,2584C2048.94,2519.11 2044.31,2506.24 1936.84,2506.24C1954.01,2454.74 2023.79,2330.13 2062.57,2330.13C2096.88,2330.13 2137.81,2332.02 2137.81,2410.3C2137.81,2499.17 2287.37,2642.46 2323.63,2584C2377.67,2496.88 2230.72,2523.45 2230.72,2313.35C2230.72,2025.92 2398.46,2066.84 2398.46,1905.36C2398.46,1824.57 2376.14,1813.66 2376.14,1755.9C2376.14,1679.56 2443.39,1683.99 2430.31,1620.7C2421.27,1576.98 2414.2,1541.92 2408.93,1489.05C2405.19,1451.54 2404,1411.55 2365.03,1413.16C2319.25,1415.05 2301.88,1495.63 2230.72,1501.41C2159.7,1507.18 2099.15,1440.95 2071.66,1450.41C2044.41,1459.79 2052.98,1533.73 2069.14,1586.24C2094.54,1668.78 2149.93,1776.1 2048.94,1792.26C1947.95,1808.42 1774.25,1824.58 1649.02,1990.2C1523.79,2155.82 1528.42,2350.19 1479.36,2410.31C1314.72,2612.08 1146,2529.23 1146,2697.11C1146,2772.27 1273.35,2826.38 1293.55,2802.14C1313.75,2777.9 1121.93,2705.68 1336.56,2620.36C1519.91,2547.46 1536.28,2532.58 1592.47,2584Z" style="fill:rgb(5,127,254);"/>
        </g>
    </g>
</svg>
