
<?xml version="1.0" encoding="UTF-8" standalone="no"?>
<!DOCTYPE svg PUBLIC "-//W3C//DTD SVG 1.1//EN" "http://www.w3.org/Graphics/SVG/1.1/DTD/svg11.dtd">
<svg width="155px" height="50px" viewBox="0 0 155 50" version="1.1" xmlns="http://www.w3.org/2000/svg" xmlns:xlink="http://www.w3.org/1999/xlink" xml:space="preserve" xmlns:serif="http://www.serif.com/" style="fill-rule:evenodd;clip-rule:evenodd;stroke-miterlimit:10;">
    <style>
    .getTheDesk {
      transform: scale(0.6151) translate(25.1929%,-77%);
      animation: getTheDeskAnime 0.3s ease-in-out 1s forwards;
    }
    @keyframes getTheDeskAnime {
      from {
        transform: scale(0.6151) translate(25.1929%,-77%);
      }
      to {
       transform: scale(0.6151) translate(25.1929%,2.40896%);
      }
    }
    .fromOfficial {
      transform: scale(0.949406) translate(30%,125%);
      animation: fromOfficialAnime 0.3s ease-in-out 1s forwards;
    }
    @keyframes fromOfficialAnime {
      from {
        transform: scale(0.949406) translate(30%,125%);
      }
      to {
       transform: scale(0.949406) translate(30%,85%);
      }
    }
    .image {
       transform: scale(0.0071995) translate(6400%,7000%);
      animation: imageAnime 0.3s ease-in-out 0.7s forwards;
    }
    @keyframes imageAnime {
      from {
         transform: scale(0.0071995) translate(6400%,7000%);
      }
      to {
       transform: scale(0.0071995) translate(1400%,7000%);
      }
    }
    </style>
    <g transform="matrix(1.03597,0,0,0.996076,-0.144052,-0.178901)">
        <path d="M149.757,12.729C149.757,5.803 144.35,0.18 137.691,0.18L12.205,0.18C5.546,0.18 0.139,5.803 0.139,12.729L0.139,37.827C0.139,44.753 5.546,50.377 12.205,50.377L137.691,50.377C144.35,50.377 149.757,44.753 149.757,37.827L149.757,12.729Z"/>
    </g>
    <g class="fromOfficial">
        <g transform="matrix(10.9646,0,0,10.9646,0,0)">
            <path d="M0.548,-0.268C0.548,-0.181 0.526,-0.113 0.482,-0.064C0.438,-0.015 0.377,0.01 0.3,0.01C0.252,0.01 0.209,-0.001 0.172,-0.024C0.135,-0.046 0.107,-0.079 0.086,-0.121C0.066,-0.163 0.056,-0.212 0.056,-0.268C0.056,-0.355 0.078,-0.423 0.122,-0.472C0.165,-0.521 0.226,-0.545 0.303,-0.545C0.378,-0.545 0.438,-0.52 0.482,-0.47C0.526,-0.42 0.548,-0.353 0.548,-0.268ZM0.14,-0.268C0.14,-0.2 0.154,-0.148 0.181,-0.112C0.208,-0.076 0.249,-0.058 0.302,-0.058C0.355,-0.058 0.395,-0.076 0.423,-0.112C0.45,-0.147 0.464,-0.199 0.464,-0.268C0.464,-0.336 0.45,-0.388 0.423,-0.423C0.395,-0.458 0.354,-0.476 0.301,-0.476C0.248,-0.476 0.208,-0.459 0.181,-0.424C0.154,-0.389 0.14,-0.337 0.14,-0.268Z" style="fill:white;fill-rule:nonzero;"/>
        </g>
        <g transform="matrix(10.9646,0,0,10.9646,6.62266,0)">
            <path d="M0.452,-0L0.452,-0.346C0.452,-0.39 0.442,-0.422 0.422,-0.444C0.403,-0.465 0.371,-0.476 0.329,-0.476C0.273,-0.476 0.232,-0.461 0.206,-0.431C0.18,-0.4 0.167,-0.35 0.167,-0.281L0.167,-0L0.086,-0L0.086,-0.535L0.152,-0.535L0.165,-0.462L0.169,-0.462C0.186,-0.488 0.209,-0.509 0.239,-0.523C0.269,-0.538 0.302,-0.545 0.339,-0.545C0.403,-0.545 0.452,-0.529 0.484,-0.498C0.517,-0.467 0.533,-0.417 0.533,-0.349L0.533,-0L0.452,-0Z" style="fill:white;fill-rule:nonzero;"/>
        </g>
        <g transform="matrix(10.9646,0,0,10.9646,16.2006,0)">
            <path d="M0.718,-0.358C0.718,-0.244 0.689,-0.154 0.631,-0.088C0.573,-0.023 0.493,0.01 0.39,0.01C0.285,0.01 0.204,-0.022 0.147,-0.087C0.09,-0.151 0.061,-0.242 0.061,-0.359C0.061,-0.475 0.09,-0.565 0.147,-0.629C0.204,-0.693 0.286,-0.725 0.391,-0.725C0.494,-0.725 0.574,-0.693 0.631,-0.627C0.689,-0.562 0.718,-0.472 0.718,-0.358ZM0.149,-0.358C0.149,-0.261 0.17,-0.188 0.211,-0.138C0.252,-0.088 0.312,-0.063 0.39,-0.063C0.469,-0.063 0.529,-0.088 0.569,-0.138C0.61,-0.188 0.63,-0.261 0.63,-0.358C0.63,-0.454 0.61,-0.527 0.57,-0.576C0.529,-0.626 0.47,-0.651 0.391,-0.651C0.312,-0.651 0.252,-0.626 0.211,-0.576C0.17,-0.526 0.149,-0.453 0.149,-0.358Z" style="fill:white;fill-rule:nonzero;"/>
        </g>
        <g transform="matrix(10.9646,0,0,10.9646,24.7399,0)">
            <path d="M0.327,-0.472L0.191,-0.472L0.191,-0L0.11,-0L0.11,-0.472L0.014,-0.472L0.014,-0.509L0.11,-0.538L0.11,-0.568C0.11,-0.699 0.167,-0.765 0.282,-0.765C0.311,-0.765 0.344,-0.759 0.382,-0.748L0.361,-0.683C0.33,-0.693 0.303,-0.698 0.281,-0.698C0.25,-0.698 0.228,-0.688 0.213,-0.668C0.198,-0.647 0.191,-0.615 0.191,-0.57L0.191,-0.535L0.327,-0.535L0.327,-0.472Z" style="fill:white;fill-rule:nonzero;"/>
        </g>
        <g transform="matrix(10.9646,0,0,10.9646,28.4555,0)">
            <path d="M0.327,-0.472L0.191,-0.472L0.191,-0L0.11,-0L0.11,-0.472L0.014,-0.472L0.014,-0.509L0.11,-0.538L0.11,-0.568C0.11,-0.699 0.167,-0.765 0.282,-0.765C0.311,-0.765 0.344,-0.759 0.382,-0.748L0.361,-0.683C0.33,-0.693 0.303,-0.698 0.281,-0.698C0.25,-0.698 0.228,-0.688 0.213,-0.668C0.198,-0.647 0.191,-0.615 0.191,-0.57L0.191,-0.535L0.327,-0.535L0.327,-0.472Z" style="fill:white;fill-rule:nonzero;"/>
        </g>
        <g transform="matrix(10.9646,0,0,10.9646,32.171,0)">
            <path d="M0.167,-0L0.086,-0L0.086,-0.535L0.167,-0.535L0.167,-0ZM0.079,-0.68C0.079,-0.699 0.084,-0.712 0.093,-0.721C0.102,-0.73 0.113,-0.734 0.127,-0.734C0.14,-0.734 0.151,-0.729 0.161,-0.721C0.17,-0.712 0.175,-0.698 0.175,-0.68C0.175,-0.662 0.17,-0.648 0.161,-0.639C0.151,-0.63 0.14,-0.626 0.127,-0.626C0.113,-0.626 0.102,-0.63 0.093,-0.639C0.084,-0.648 0.079,-0.662 0.079,-0.68Z" style="fill:white;fill-rule:nonzero;"/>
        </g>
        <g transform="matrix(10.9646,0,0,10.9646,34.9443,0)">
            <path d="M0.3,0.01C0.222,0.01 0.162,-0.014 0.12,-0.062C0.077,-0.109 0.056,-0.177 0.056,-0.264C0.056,-0.354 0.078,-0.423 0.121,-0.472C0.164,-0.521 0.225,-0.545 0.305,-0.545C0.331,-0.545 0.357,-0.542 0.382,-0.537C0.408,-0.531 0.428,-0.525 0.443,-0.517L0.418,-0.448C0.4,-0.455 0.381,-0.461 0.359,-0.466C0.338,-0.471 0.319,-0.473 0.303,-0.473C0.194,-0.473 0.14,-0.404 0.14,-0.265C0.14,-0.199 0.153,-0.149 0.18,-0.114C0.206,-0.079 0.246,-0.061 0.298,-0.061C0.342,-0.061 0.388,-0.071 0.435,-0.09L0.435,-0.018C0.399,0 0.354,0.01 0.3,0.01Z" style="fill:white;fill-rule:nonzero;"/>
        </g>
        <g transform="matrix(10.9646,0,0,10.9646,40.1643,0)">
            <path d="M0.167,-0L0.086,-0L0.086,-0.535L0.167,-0.535L0.167,-0ZM0.079,-0.68C0.079,-0.699 0.084,-0.712 0.093,-0.721C0.102,-0.73 0.113,-0.734 0.127,-0.734C0.14,-0.734 0.151,-0.729 0.161,-0.721C0.17,-0.712 0.175,-0.698 0.175,-0.68C0.175,-0.662 0.17,-0.648 0.161,-0.639C0.151,-0.63 0.14,-0.626 0.127,-0.626C0.113,-0.626 0.102,-0.63 0.093,-0.639C0.084,-0.648 0.079,-0.662 0.079,-0.68Z" style="fill:white;fill-rule:nonzero;"/>
        </g>
        <g transform="matrix(10.9646,0,0,10.9646,42.9375,0)">
            <path d="M0.415,-0L0.399,-0.076L0.395,-0.076C0.368,-0.043 0.342,-0.02 0.315,-0.008C0.289,0.004 0.256,0.01 0.216,0.01C0.163,0.01 0.121,-0.004 0.091,-0.031C0.061,-0.059 0.046,-0.097 0.046,-0.148C0.046,-0.256 0.132,-0.313 0.305,-0.318L0.396,-0.321L0.396,-0.354C0.396,-0.396 0.387,-0.427 0.369,-0.447C0.351,-0.467 0.322,-0.477 0.282,-0.477C0.238,-0.477 0.187,-0.463 0.131,-0.436L0.106,-0.498C0.132,-0.512 0.161,-0.524 0.193,-0.532C0.224,-0.54 0.256,-0.544 0.287,-0.544C0.351,-0.544 0.398,-0.53 0.429,-0.501C0.46,-0.473 0.475,-0.428 0.475,-0.365L0.475,-0L0.415,-0ZM0.232,-0.057C0.282,-0.057 0.322,-0.071 0.351,-0.099C0.38,-0.126 0.394,-0.165 0.394,-0.215L0.394,-0.263L0.313,-0.26C0.249,-0.257 0.202,-0.247 0.174,-0.23C0.145,-0.212 0.131,-0.184 0.131,-0.147C0.131,-0.118 0.14,-0.095 0.157,-0.08C0.175,-0.065 0.2,-0.057 0.232,-0.057Z" style="fill:white;fill-rule:nonzero;"/>
        </g>
        <g transform="matrix(10.9646,0,0,10.9646,49.0355,0)">
            <rect x="0.086" y="-0.76" width="0.081" height="0.76" style="fill:white;fill-rule:nonzero;"/>
        </g>
        <g transform="matrix(10.9646,0,0,10.9646,54.657,0)">
            <path d="M0.721,-0L0.639,-0L0.495,-0.478C0.488,-0.499 0.481,-0.526 0.472,-0.558C0.464,-0.59 0.459,-0.61 0.459,-0.616C0.452,-0.573 0.44,-0.526 0.425,-0.475L0.285,-0L0.203,-0L0.013,-0.714L0.101,-0.714L0.214,-0.273C0.229,-0.211 0.241,-0.155 0.248,-0.105C0.257,-0.165 0.27,-0.223 0.287,-0.28L0.415,-0.714L0.503,-0.714L0.637,-0.276C0.653,-0.225 0.666,-0.168 0.677,-0.105C0.683,-0.151 0.695,-0.208 0.712,-0.274L0.824,-0.714L0.912,-0.714L0.721,-0Z" style="fill:white;fill-rule:nonzero;"/>
        </g>
        <g transform="matrix(10.9646,0,0,10.9646,64.8078,0)">
            <path d="M0.312,0.01C0.233,0.01 0.17,-0.014 0.125,-0.063C0.079,-0.111 0.056,-0.178 0.056,-0.263C0.056,-0.349 0.077,-0.418 0.12,-0.469C0.162,-0.52 0.219,-0.545 0.291,-0.545C0.358,-0.545 0.411,-0.523 0.45,-0.479C0.489,-0.435 0.509,-0.376 0.509,-0.304L0.509,-0.253L0.14,-0.253C0.142,-0.19 0.158,-0.142 0.188,-0.11C0.218,-0.077 0.26,-0.061 0.315,-0.061C0.373,-0.061 0.43,-0.073 0.486,-0.097L0.486,-0.025C0.457,-0.013 0.43,-0.004 0.405,0.002C0.379,0.007 0.348,0.01 0.312,0.01ZM0.29,-0.477C0.247,-0.477 0.213,-0.463 0.187,-0.435C0.162,-0.407 0.147,-0.368 0.142,-0.319L0.422,-0.319C0.422,-0.37 0.41,-0.409 0.388,-0.436C0.365,-0.463 0.332,-0.477 0.29,-0.477Z" style="fill:white;fill-rule:nonzero;"/>
        </g>
        <g transform="matrix(10.9646,0,0,10.9646,70.9593,0)">
            <path d="M0.335,-0.544C0.405,-0.544 0.46,-0.52 0.499,-0.472C0.538,-0.424 0.557,-0.356 0.557,-0.268C0.557,-0.18 0.538,-0.112 0.498,-0.063C0.459,-0.015 0.405,0.01 0.335,0.01C0.3,0.01 0.268,0.003 0.24,-0.01C0.211,-0.022 0.187,-0.042 0.167,-0.069L0.161,-0.069L0.144,-0L0.086,-0L0.086,-0.76L0.167,-0.76L0.167,-0.575C0.167,-0.534 0.166,-0.497 0.163,-0.464L0.167,-0.464C0.205,-0.517 0.261,-0.544 0.335,-0.544ZM0.323,-0.476C0.268,-0.476 0.228,-0.46 0.204,-0.428C0.179,-0.397 0.167,-0.343 0.167,-0.268C0.167,-0.193 0.18,-0.139 0.205,-0.107C0.23,-0.074 0.27,-0.058 0.325,-0.058C0.375,-0.058 0.412,-0.076 0.437,-0.113C0.461,-0.149 0.473,-0.201 0.473,-0.269C0.473,-0.339 0.461,-0.391 0.437,-0.425C0.412,-0.459 0.374,-0.476 0.323,-0.476Z" style="fill:white;fill-rule:nonzero;"/>
        </g>
        <g transform="matrix(10.9646,0,0,10.9646,77.6784,0)">
            <path d="M0.431,-0.146C0.431,-0.096 0.413,-0.058 0.375,-0.031C0.338,-0.004 0.286,0.01 0.219,0.01C0.148,0.01 0.093,-0.001 0.053,-0.024L0.053,-0.099C0.079,-0.086 0.107,-0.076 0.136,-0.068C0.165,-0.061 0.194,-0.057 0.221,-0.057C0.264,-0.057 0.296,-0.064 0.319,-0.077C0.342,-0.091 0.353,-0.111 0.353,-0.139C0.353,-0.16 0.344,-0.178 0.326,-0.193C0.308,-0.207 0.273,-0.225 0.22,-0.245C0.17,-0.264 0.135,-0.28 0.114,-0.294C0.093,-0.308 0.077,-0.323 0.067,-0.341C0.057,-0.358 0.052,-0.379 0.052,-0.404C0.052,-0.447 0.069,-0.482 0.105,-0.507C0.14,-0.532 0.189,-0.545 0.251,-0.545C0.309,-0.545 0.365,-0.533 0.42,-0.51L0.391,-0.444C0.337,-0.466 0.289,-0.477 0.245,-0.477C0.207,-0.477 0.178,-0.471 0.158,-0.459C0.139,-0.447 0.129,-0.43 0.129,-0.409C0.129,-0.395 0.133,-0.383 0.14,-0.373C0.147,-0.362 0.159,-0.353 0.175,-0.344C0.192,-0.335 0.223,-0.321 0.269,-0.304C0.333,-0.281 0.375,-0.258 0.398,-0.234C0.42,-0.211 0.431,-0.181 0.431,-0.146Z" style="fill:white;fill-rule:nonzero;"/>
        </g>
        <g transform="matrix(10.9646,0,0,10.9646,82.909,0)">
            <path d="M0.167,-0L0.086,-0L0.086,-0.535L0.167,-0.535L0.167,-0ZM0.079,-0.68C0.079,-0.699 0.084,-0.712 0.093,-0.721C0.102,-0.73 0.113,-0.734 0.127,-0.734C0.14,-0.734 0.151,-0.729 0.161,-0.721C0.17,-0.712 0.175,-0.698 0.175,-0.68C0.175,-0.662 0.17,-0.648 0.161,-0.639C0.151,-0.63 0.14,-0.626 0.127,-0.626C0.113,-0.626 0.102,-0.63 0.093,-0.639C0.084,-0.648 0.079,-0.662 0.079,-0.68Z" style="fill:white;fill-rule:nonzero;"/>
        </g>
        <g transform="matrix(10.9646,0,0,10.9646,85.6823,0)">
            <path d="M0.259,-0.057C0.273,-0.057 0.287,-0.058 0.3,-0.06C0.314,-0.062 0.324,-0.065 0.332,-0.067L0.332,-0.005C0.323,-0.001 0.31,0.003 0.293,0.006C0.276,0.008 0.261,0.01 0.247,0.01C0.144,0.01 0.092,-0.045 0.092,-0.154L0.092,-0.472L0.015,-0.472L0.015,-0.511L0.092,-0.545L0.126,-0.659L0.173,-0.659L0.173,-0.535L0.328,-0.535L0.328,-0.472L0.173,-0.472L0.173,-0.157C0.173,-0.125 0.181,-0.1 0.196,-0.083C0.211,-0.066 0.232,-0.057 0.259,-0.057Z" style="fill:white;fill-rule:nonzero;"/>
        </g>
        <g transform="matrix(10.9646,0,0,10.9646,89.5531,0)">
            <path d="M0.312,0.01C0.233,0.01 0.17,-0.014 0.125,-0.063C0.079,-0.111 0.056,-0.178 0.056,-0.263C0.056,-0.349 0.077,-0.418 0.12,-0.469C0.162,-0.52 0.219,-0.545 0.291,-0.545C0.358,-0.545 0.411,-0.523 0.45,-0.479C0.489,-0.435 0.509,-0.376 0.509,-0.304L0.509,-0.253L0.14,-0.253C0.142,-0.19 0.158,-0.142 0.188,-0.11C0.218,-0.077 0.26,-0.061 0.315,-0.061C0.373,-0.061 0.43,-0.073 0.486,-0.097L0.486,-0.025C0.457,-0.013 0.43,-0.004 0.405,0.002C0.379,0.007 0.348,0.01 0.312,0.01ZM0.29,-0.477C0.247,-0.477 0.213,-0.463 0.187,-0.435C0.162,-0.407 0.147,-0.368 0.142,-0.319L0.422,-0.319C0.422,-0.37 0.41,-0.409 0.388,-0.436C0.365,-0.463 0.332,-0.477 0.29,-0.477Z" style="fill:white;fill-rule:nonzero;"/>
        </g>
    </g>
    <g class="getTheDesk">
        <g transform="matrix(32.7577,0,0,32.7577,8.56534,37.8875)">
            <path d="M0.412,-0.374L0.655,-0.374L0.655,-0.027C0.617,-0.015 0.579,-0.006 0.54,0C0.5,0.007 0.455,0.01 0.404,0.01C0.296,0.01 0.212,-0.022 0.151,-0.087C0.091,-0.151 0.061,-0.241 0.061,-0.357C0.061,-0.431 0.076,-0.496 0.106,-0.552C0.135,-0.608 0.178,-0.65 0.234,-0.68C0.29,-0.709 0.356,-0.724 0.431,-0.724C0.507,-0.724 0.578,-0.71 0.644,-0.682L0.612,-0.609C0.547,-0.636 0.485,-0.65 0.426,-0.65C0.339,-0.65 0.271,-0.624 0.222,-0.572C0.173,-0.521 0.149,-0.449 0.149,-0.357C0.149,-0.261 0.172,-0.188 0.219,-0.138C0.267,-0.088 0.336,-0.063 0.427,-0.063C0.476,-0.063 0.525,-0.069 0.572,-0.08L0.572,-0.3L0.412,-0.3L0.412,-0.374Z" style="fill:white;fill-rule:nonzero;"/>
        </g>
        <g transform="matrix(32.7577,0,0,32.7577,32.4139,37.8875)">
            <path d="M0.312,0.01C0.233,0.01 0.17,-0.014 0.125,-0.063C0.079,-0.111 0.056,-0.178 0.056,-0.263C0.056,-0.349 0.077,-0.418 0.12,-0.469C0.162,-0.52 0.219,-0.545 0.291,-0.545C0.358,-0.545 0.411,-0.523 0.45,-0.479C0.489,-0.435 0.509,-0.376 0.509,-0.304L0.509,-0.253L0.14,-0.253C0.142,-0.19 0.158,-0.142 0.188,-0.11C0.218,-0.077 0.26,-0.061 0.315,-0.061C0.373,-0.061 0.43,-0.073 0.486,-0.097L0.486,-0.025C0.457,-0.013 0.43,-0.004 0.405,0.002C0.379,0.007 0.348,0.01 0.312,0.01ZM0.29,-0.477C0.247,-0.477 0.213,-0.463 0.187,-0.435C0.162,-0.407 0.147,-0.368 0.142,-0.319L0.422,-0.319C0.422,-0.37 0.41,-0.409 0.388,-0.436C0.365,-0.463 0.332,-0.477 0.29,-0.477Z" style="fill:white;fill-rule:nonzero;"/>
        </g>
        <g transform="matrix(32.7577,0,0,32.7577,50.7921,37.8875)">
            <path d="M0.259,-0.057C0.273,-0.057 0.287,-0.058 0.3,-0.06C0.314,-0.062 0.324,-0.065 0.332,-0.067L0.332,-0.005C0.323,-0.001 0.31,0.003 0.293,0.006C0.276,0.008 0.261,0.01 0.247,0.01C0.144,0.01 0.092,-0.045 0.092,-0.154L0.092,-0.472L0.015,-0.472L0.015,-0.511L0.092,-0.545L0.126,-0.659L0.173,-0.659L0.173,-0.535L0.328,-0.535L0.328,-0.472L0.173,-0.472L0.173,-0.157C0.173,-0.125 0.181,-0.1 0.196,-0.083C0.211,-0.066 0.232,-0.057 0.259,-0.057Z" style="fill:white;fill-rule:nonzero;"/>
        </g>
        <g transform="matrix(32.7577,0,0,32.7577,70.8658,37.8875)">
            <path d="M0.318,-0L0.235,-0L0.235,-0.64L0.009,-0.64L0.009,-0.714L0.544,-0.714L0.544,-0.64L0.318,-0.64L0.318,-0Z" style="fill:white;fill-rule:nonzero;"/>
        </g>
        <g transform="matrix(32.7577,0,0,32.7577,88.9881,37.8875)">
            <path d="M0.452,-0L0.452,-0.346C0.452,-0.39 0.442,-0.422 0.422,-0.444C0.403,-0.465 0.371,-0.476 0.329,-0.476C0.273,-0.476 0.232,-0.461 0.206,-0.43C0.18,-0.4 0.167,-0.349 0.167,-0.28L0.167,-0L0.086,-0L0.086,-0.76L0.167,-0.76L0.167,-0.53C0.167,-0.502 0.166,-0.479 0.163,-0.461L0.168,-0.461C0.184,-0.487 0.207,-0.507 0.236,-0.522C0.266,-0.537 0.299,-0.544 0.337,-0.544C0.402,-0.544 0.451,-0.528 0.484,-0.497C0.517,-0.466 0.533,-0.417 0.533,-0.349L0.533,-0L0.452,-0Z" style="fill:white;fill-rule:nonzero;"/>
        </g>
        <g transform="matrix(32.7577,0,0,32.7577,109.094,37.8875)">
            <path d="M0.312,0.01C0.233,0.01 0.17,-0.014 0.125,-0.063C0.079,-0.111 0.056,-0.178 0.056,-0.263C0.056,-0.349 0.077,-0.418 0.12,-0.469C0.162,-0.52 0.219,-0.545 0.291,-0.545C0.358,-0.545 0.411,-0.523 0.45,-0.479C0.489,-0.435 0.509,-0.376 0.509,-0.304L0.509,-0.253L0.14,-0.253C0.142,-0.19 0.158,-0.142 0.188,-0.11C0.218,-0.077 0.26,-0.061 0.315,-0.061C0.373,-0.061 0.43,-0.073 0.486,-0.097L0.486,-0.025C0.457,-0.013 0.43,-0.004 0.405,0.002C0.379,0.007 0.348,0.01 0.312,0.01ZM0.29,-0.477C0.247,-0.477 0.213,-0.463 0.187,-0.435C0.162,-0.407 0.147,-0.368 0.142,-0.319L0.422,-0.319C0.422,-0.37 0.41,-0.409 0.388,-0.436C0.365,-0.463 0.332,-0.477 0.29,-0.477Z" style="fill:white;fill-rule:nonzero;"/>
        </g>
        <g transform="matrix(32.7577,0,0,32.7577,127.472,37.8875)">
            <path d="M0.668,-0.364C0.668,-0.246 0.636,-0.156 0.572,-0.094C0.508,-0.031 0.416,-0 0.296,-0L0.098,-0L0.098,-0.714L0.317,-0.714C0.428,-0.714 0.514,-0.683 0.576,-0.622C0.637,-0.56 0.668,-0.474 0.668,-0.364ZM0.58,-0.361C0.58,-0.454 0.557,-0.524 0.51,-0.571C0.463,-0.618 0.394,-0.642 0.302,-0.642L0.181,-0.642L0.181,-0.072L0.282,-0.072C0.381,-0.072 0.456,-0.096 0.505,-0.145C0.555,-0.193 0.58,-0.265 0.58,-0.361Z" style="fill:white;fill-rule:nonzero;"/>
        </g>
        <g transform="matrix(32.7577,0,0,32.7577,151.353,37.8875)">
            <path d="M0.312,0.01C0.233,0.01 0.17,-0.014 0.125,-0.063C0.079,-0.111 0.056,-0.178 0.056,-0.263C0.056,-0.349 0.077,-0.418 0.12,-0.469C0.162,-0.52 0.219,-0.545 0.291,-0.545C0.358,-0.545 0.411,-0.523 0.45,-0.479C0.489,-0.435 0.509,-0.376 0.509,-0.304L0.509,-0.253L0.14,-0.253C0.142,-0.19 0.158,-0.142 0.188,-0.11C0.218,-0.077 0.26,-0.061 0.315,-0.061C0.373,-0.061 0.43,-0.073 0.486,-0.097L0.486,-0.025C0.457,-0.013 0.43,-0.004 0.405,0.002C0.379,0.007 0.348,0.01 0.312,0.01ZM0.29,-0.477C0.247,-0.477 0.213,-0.463 0.187,-0.435C0.162,-0.407 0.147,-0.368 0.142,-0.319L0.422,-0.319C0.422,-0.37 0.41,-0.409 0.388,-0.436C0.365,-0.463 0.332,-0.477 0.29,-0.477Z" style="fill:white;fill-rule:nonzero;"/>
        </g>
        <g transform="matrix(32.7577,0,0,32.7577,169.731,37.8875)">
            <path d="M0.431,-0.146C0.431,-0.096 0.413,-0.058 0.375,-0.031C0.338,-0.004 0.286,0.01 0.219,0.01C0.148,0.01 0.093,-0.001 0.053,-0.024L0.053,-0.099C0.079,-0.086 0.107,-0.076 0.136,-0.068C0.165,-0.061 0.194,-0.057 0.221,-0.057C0.264,-0.057 0.296,-0.064 0.319,-0.077C0.342,-0.091 0.353,-0.111 0.353,-0.139C0.353,-0.16 0.344,-0.178 0.326,-0.193C0.308,-0.207 0.273,-0.225 0.22,-0.245C0.17,-0.264 0.135,-0.28 0.114,-0.294C0.093,-0.308 0.077,-0.323 0.067,-0.341C0.057,-0.358 0.052,-0.379 0.052,-0.404C0.052,-0.447 0.069,-0.482 0.105,-0.507C0.14,-0.532 0.189,-0.545 0.251,-0.545C0.309,-0.545 0.365,-0.533 0.42,-0.51L0.391,-0.444C0.337,-0.466 0.289,-0.477 0.245,-0.477C0.207,-0.477 0.178,-0.471 0.158,-0.459C0.139,-0.447 0.129,-0.43 0.129,-0.409C0.129,-0.395 0.133,-0.383 0.14,-0.373C0.147,-0.362 0.159,-0.353 0.175,-0.344C0.192,-0.335 0.223,-0.321 0.269,-0.304C0.333,-0.281 0.375,-0.258 0.398,-0.234C0.42,-0.211 0.431,-0.181 0.431,-0.146Z" style="fill:white;fill-rule:nonzero;"/>
        </g>
        <g transform="matrix(32.7577,0,0,32.7577,185.358,37.8875)">
            <path d="M0.166,-0.274C0.18,-0.294 0.201,-0.32 0.23,-0.352L0.403,-0.535L0.499,-0.535L0.282,-0.307L0.514,-0L0.416,-0L0.227,-0.253L0.166,-0.2L0.166,-0L0.086,-0L0.086,-0.76L0.166,-0.76L0.166,-0.357C0.166,-0.339 0.165,-0.311 0.162,-0.274L0.166,-0.274Z" style="fill:white;fill-rule:nonzero;"/>
        </g>
    </g>
    <g id="desk.svg" class="image">
        <g transform="matrix(1,0,0,1,-2048,-2048)">
            <g id="レイヤー_2">
                <path d="M1128.5,650.67L3378,1950L3378,2137L1128.5,3432.67" style="fill:white;fill-rule:nonzero;"/>
                <rect x="678.5" y="128.48" width="450" height="3821.5" style="fill:rgb(84,82,81);stroke:rgb(4,0,0);stroke-width:1px;"/>
                <g transform="matrix(0.5,-0.866,0.866,0.5,225.753,2341.54)">
                    <rect x="1915.71" y="-583.55" width="450" height="3117.62" style="fill:rgb(240,132,46);"/>
                </g>
                <g transform="matrix(0.5,0.866,-0.866,0.5,3762.03,-299.625)">
                    <rect x="1915.5" y="1555.41" width="450" height="3105.58" style="fill:rgb(54,76,159);"/>
                </g>
                <path id="path1891" d="M1592.47,2584L2048.94,2584C2048.94,2519.11 2044.31,2506.24 1936.84,2506.24C1954.01,2454.74 2023.79,2330.13 2062.57,2330.13C2096.88,2330.13 2137.81,2332.02 2137.81,2410.3C2137.81,2499.17 2287.37,2642.46 2323.63,2584C2377.67,2496.88 2230.72,2523.45 2230.72,2313.35C2230.72,2025.92 2398.46,2066.84 2398.46,1905.36C2398.46,1824.57 2376.14,1813.66 2376.14,1755.9C2376.14,1679.56 2443.39,1683.99 2430.31,1620.7C2421.27,1576.98 2414.2,1541.92 2408.93,1489.05C2405.19,1451.54 2404,1411.55 2365.03,1413.16C2319.25,1415.05 2301.88,1495.63 2230.72,1501.41C2159.7,1507.18 2099.15,1440.95 2071.66,1450.41C2044.41,1459.79 2052.98,1533.73 2069.14,1586.24C2094.54,1668.78 2149.93,1776.1 2048.94,1792.26C1947.95,1808.42 1774.25,1824.58 1649.02,1990.2C1523.79,2155.82 1528.42,2350.19 1479.36,2410.31C1314.72,2612.08 1146,2529.23 1146,2697.11C1146,2772.27 1273.35,2826.38 1293.55,2802.14C1313.75,2777.9 1121.93,2705.68 1336.56,2620.36C1519.91,2547.46 1536.28,2532.58 1592.47,2584Z" style="fill:rgb(4,0,0);"/>
                <rect x="0" y="0" width="4096" height="4096" style="fill:none;"/>
            </g>
        </g>
    </g>
</svg>
