<!--?xml version="1.0" encoding="utf-8"?-->
<!-- Generator: Adobe Illustrator 18.1.1, SVG Export Plug-In . SVG Version: 6.00 Build 0)  -->

<svg version="1.1" id="_x32_" xmlns="http://www.w3.org/2000/svg" xmlns:xlink="http://www.w3.org/1999/xlink" x="0px" y="0px" viewBox="0 0 512 512" style="width: 256px; height: 256px; opacity: 1;" xml:space="preserve">
<style type="text/css">
	.st0{fill:#fff;}
</style>
<g>
	<path class="st0" d="M170.362,210.367c17.446-7.278,39.21-16.595,61.009-25.911c64.49-27.559,91.827-39.06,102.643-41.857
		c16.021-4.14,32.671-6.242,49.507-6.242c1.148,0,2.241,0.037,3.352,0.046l-0.666-0.722L325.828,77.71
		c-9.631-9.251-19.318-11.344-36.042-13.4c0,0-26.447-5.315-59.1,3.111c-12.891,3.334-101.106,42.117-151.65,63.185
		c-50.543,21.068-68.12,56.527-68.12,56.527c-8.76,15.085-10.482,20.697-10.871,30.884c-0.371,10.205,1.574,15.456,8.945,22.522
		l53.286,51.164c3.278,3.14,7,5.538,10.964,7.196c1.889-3.834,4.056-7.807,6.556-12.122
		C84.943,277.163,110.058,235.482,170.362,210.367z" style="fill: rgb(255, 255, 255);"></path>
	<path class="st0" d="M506,236.407l-65.676-63.045c-10.482-10.066-21.002-12.335-39.19-14.586c0,0-28.781-5.779-64.286,3.389
		c-14.038,3.631-109.978,45.822-164.967,68.732c-54.989,22.92-74.102,61.481-74.102,61.481
		c-9.52,16.418-11.408,22.512-11.816,33.597c-0.389,11.094,1.722,16.817,9.724,24.503l57.971,55.656
		c14.298,13.715,36.616,14.53,51.877,1.88c0,0,0.315-0.556,0.852-1.361c4.353,4.019,8.594,7.899,12.428,11.372
		c5.204,4.714,9.778,8.797,13.428,11.946c1.815,1.574,3.408,2.917,4.778,4.019c1.407,1.129,2.426,1.945,3.797,2.815
		c3.315,2.046,7.927,5.139,13.724,7.76c5.816,2.621,12.965,4.788,21.207,4.778c6.5,0.01,13.558-1.352,20.872-4.473l0.093-0.037
		l120.183-54.423c7.872-3.344,14.261-6.464,19.633-9.974c4.037-2.649,7.556-5.566,10.427-8.982
		c4.352-5.122,6.908-11.27,8.094-17.512c1.204-6.298,1.37-12.798,1.389-20.411c0-4.741-0.093-9.918-0.112-15.705l-0.203-46.877
		c14.631-2.908,37.412-1.028,37.412-1.028c7.76-0.407,14.52-5.389,17.242-12.658C513.483,249.984,511.612,241.788,506,236.407z
		 M435.046,348.645c-0.445,2.787-1.056,4.788-1.852,6.436c-1.222,2.426-2.852,4.473-6.63,7.205
		c-3.76,2.676-9.594,5.731-17.947,9.232l-0.111,0.046l-119.998,54.35c-4.964,2.093-9.076,2.796-12.761,2.806
		c-4.668,0-8.761-1.166-12.743-2.954c-3.945-1.778-7.612-4.158-11.242-6.436c-0.111-0.074-1.018-0.75-2.186-1.694
		c-4.444-3.64-13.26-11.521-23.688-21.05c-2.204-2.028-4.63-4.269-6.983-6.426c12.873-14.9,35.116-35.774,67.528-49.294
		c44.58-18.567,116.238-49.174,149.095-62.545l0.185,39.597c0.019,5.926,0.093,11.122,0.093,15.613
		C435.824,339.95,435.62,344.959,435.046,348.645z" style="fill: rgb(255, 255, 255);"></path>
</g>
</svg>
