<?xml version="1.0" encoding="utf-8"?>
<!--
	ThinkingDesk: Cutls P's icon, Cutls P.
	This work is licensed under the Creative Commons Attribution-NonCommercial-ShareAlike 4.0 International License. To view a copy of this license, visit http://creativecommons.org/licenses/by-nc-sa/4.0/ or send a letter to Creative Commons, PO Box 1866, Mountain View, CA 94042, USA.
-->
<!-- Generator: Adobe Illustrator 23.0.3, SVG Export Plug-In . SVG Version: 6.00 Build 0)  -->
<svg version="1.1" xmlns="http://www.w3.org/2000/svg" xmlns:xlink="http://www.w3.org/1999/xlink" x="0px" y="0px"
	 viewBox="0 0 4096 4096" style="enable-background:new 0 0 4096 4096;" xml:space="preserve">
<style type="text/css">
	.st0{fill:#040000;}
	.st1{fill:#040000;stroke:#040000;stroke-miterlimit:10;}
	.st2{clip-path:url(#SVGID_2_);}
	.st3{clip-path:url(#SVGID_4_);}
	.st4{fill:none;}
	.st5{fill:#FFFFFF;}
	.st6{fill:#545251;stroke:#040000;stroke-miterlimit:10;}
	.st7{fill:#F0842E;}
	.st8{fill:#3D4FA0;}
	.st9{fill:#63451F;stroke:#FFFFFF;stroke-width:20;stroke-miterlimit:10;}
	.st10{fill:#63451F;}
</style>
<g id="DrawBlack">
	<polyline id="BG_1_" class="st0" points="1128.5,650.67 3378,1950 3378,2137 1128.5,3432.67 	"/>
	<rect id="Left_1_" x="678.5" y="128.48" class="st1" width="450" height="3821.5"/>
	
		<rect id="Top_1_" x="1915.71" y="-583.55" transform="matrix(0.5 -0.866 0.866 0.5 225.753 2341.5386)" class="st0" width="450" height="3117.62"/>
	<g id="Finger_1_">
		<g>
			<defs>
				
					<rect id="SVGID_1_" x="-626.54" y="666.18" transform="matrix(0.9063 -0.4226 0.4226 0.9063 -723.8983 1097.2598)" width="5478.6" height="3030.2"/>
			</defs>
			<clipPath id="SVGID_2_">
				<use xlink:href="#SVGID_1_"  style="overflow:visible;"/>
			</clipPath>
			<g id="g14_3_" class="st2">
				<g id="g44_1_" transform="translate(17.2764,0.8682)">
					<path id="path46_1_" class="st0" d="M2605.11,3533.86c0,0,159.85-112.71,149-195.05c-10.68-85.2-127.58-48.89-127.58-48.89
						s136.18-82.82,112.7-180.35c-22.17-91.83-167.38-48.54-167.38-48.54s119.56-92.9,85.39-182.75
						c-28.87-75.6-188.03-44.94-188.03-44.94s651.47-417.09,718.51-459.5c66.86-42.42,160.29-131.95,87.28-198.12
						c-72.76-66.37-205.83-7.85-269.88,32.69c-64.01,40.62-874.42,553.28-1153.93,730.24c-29.84,18.84-169.66,107.16-186.59,118.03
						c-69.96,44.42-112.22,42.02-74.07-13.01c51.14-73.63,74.73-139.7,55.45-222.1c-20.44-86.69-114.31-161.6-159.65-186.44
						c-84.35-46.21-197.27-61.16-306.71-33.34c-170.83,43.44-256.98,149.65-157.15,218.26c149.29,102.66,148.88,244.02,37.82,381.07
						c-261.05,322.06-363.57,512.7-142.28,713.95c241.24,219.53,812.72,166.75,1276.35-126.35
						C2218.92,3773.38,2605.11,3533.86,2605.11,3533.86"/>
				</g>
			</g>
		</g>
	</g>
	<g id="Eyes_1_">
		<g>
			<defs>
				<rect id="SVGID_3_" x="95.01" y="544.01" width="3526.99" height="3526.99"/>
			</defs>
			<clipPath id="SVGID_4_">
				<use xlink:href="#SVGID_3_"  style="overflow:visible;"/>
			</clipPath>
			<g id="g14_2_" class="st3">
				<g id="g24_1_" transform="translate(15.4063,25.5)">
					<path id="path26_1_" class="st0" d="M1588.99,1547.21c0,135.3-87.78,244.93-195.94,244.93
						c-108.16,0-195.94-109.63-195.94-244.93c0-135.2,87.78-244.93,195.94-244.93C1501.21,1302.28,1588.99,1412.01,1588.99,1547.21"
						/>
				</g>
				<g id="g32_1_" transform="translate(9.6709,29.667)">
					<path id="path34_1_" class="st0" d="M1032.82,1134.8c-16.07-8.52-29.69-21.85-38.31-38.99c-21.16-42.03-3.92-90.82,38.5-109.04
						c417.95-179.29,754.29-4.21,768.39,3.33c42.42,22.63,59.57,73.28,38.31,113.06c-21.16,39.68-72.5,53.49-114.92,31.16
						c-12.05-6.27-277.46-140.3-615.07,4.6C1084.54,1149.59,1056.13,1147.24,1032.82,1134.8"/>
				</g>
				<g id="g36_1_" transform="translate(14.7427,16.4277)">
					<path id="path38_1_" class="st0" d="M1524.64,2445.12c-13.32-12.44-23.12-28.71-27.04-47.61c-9.7-45.95,19.4-88.76,65.15-95.42
						c449.89-66.43,730.09,188.99,741.94,199.86c35.27,32.72,38.7,85.92,8.03,119.04c-30.57,32.92-83.77,33.11-118.94,0.59
						c-10.19-9.01-232.39-206.52-595.87-152.93C1570.78,2472.65,1543.94,2463.15,1524.64,2445.12"/>
				</g>
				<g id="g40_1_" transform="translate(20.4307,25.917)">
					<path id="path42_1_" class="st0" d="M2076.21,1505.94c-15.28-9.6-28.02-23.81-35.47-41.54c-18.32-43.3,2.25-90.92,45.75-106.2
						c429.22-150.48,752.91,47.03,766.53,55.55c40.66,25.47,54.28,77.1,30.47,115.41c-23.71,38.21-76.03,48.5-116.68,23.32
						c-11.76-7.15-267.27-158.81-613.99-37.23C2126.96,1524.26,2098.75,1519.95,2076.21,1505.94"/>
				</g>
				<g id="g28_1_" transform="translate(26,24.5)">
					<path id="path30_1_" class="st0" d="M2616.28,1646.19c0,135.3-87.69,244.93-195.94,244.93
						c-108.16,0-195.94-109.63-195.94-244.93c0-135.2,87.78-244.93,195.94-244.93C2528.6,1401.26,2616.28,1510.99,2616.28,1646.19"
						/>
				</g>
			</g>
		</g>
	</g>
</g>
<g id="Path">
	<path id="CutLine" class="st4" d="M528,128C532-14,669,0,669,0h346l2629,1464c0,0,78,34,28,108s-217,359-217,359s-22,9,9,226
		s-204,313-204,313l-545,356c0,0,421.37,492.67,29.68,732.33S1798,4056,1798,4056s28.13,15-290.94,15s-828.56,0-828.56,0
		S531,4102,528,3904S528,128,528,128z"/>
</g>
<g id="Draw">
	<polyline id="BG" class="st5" points="1128.5,650.67 3378,1950 3378,2137 1128.5,3432.67 	"/>
	<rect id="Left" x="678.5" y="128.48" class="st6" width="450" height="3821.5"/>
	
		<rect id="Top" x="1915.71" y="-583.55" transform="matrix(0.5 -0.866 0.866 0.5 225.753 2341.5386)" class="st7" width="450" height="3117.62"/>
	<g id="Finger">
		<g id="g44" transform="translate(17.2764,0.8682)">
			<path id="path46" class="st8" d="M2605.11,3533.86c0,0,159.85-112.71,149-195.05c-10.68-85.2-127.58-48.89-127.58-48.89
				s136.18-82.82,112.7-180.35c-22.17-91.83-167.38-48.54-167.38-48.54s119.56-92.9,85.39-182.75
				c-28.87-75.6-188.03-44.94-188.03-44.94s651.47-417.09,718.51-459.5c66.86-42.42,160.29-131.95,87.28-198.12
				c-72.76-66.37-205.83-7.85-269.88,32.69c-64.01,40.62-874.42,553.28-1153.93,730.24c-29.84,18.84-169.66,107.16-186.59,118.03
				c-69.96,44.42-112.22,42.02-74.07-13.01c51.14-73.63,74.73-139.7,55.45-222.1c-20.44-86.69-114.31-161.6-159.65-186.44
				c-84.35-46.21-197.27-61.16-306.71-33.34c-170.83,43.44-256.98,149.65-157.15,218.26c149.29,102.66,148.88,244.02,37.82,381.07
				c-261.05,322.06-363.57,512.7-142.28,713.95c241.24,219.53,812.72,166.75,1276.35-126.35
				C2218.92,3773.38,2605.11,3533.86,2605.11,3533.86"/>
		</g>
	</g>
	<g id="Eyes">
		<g id="g24" transform="translate(15.4063,25.5)">
			<path id="path26" class="st9" d="M1588.99,1547.21c0,135.3-87.78,244.93-195.94,244.93c-108.16,0-195.94-109.63-195.94-244.93
				c0-135.2,87.78-244.93,195.94-244.93C1501.21,1302.28,1588.99,1412.01,1588.99,1547.21"/>
		</g>
		<g id="g32" transform="translate(9.6709,29.667)">
			<path id="path34" class="st9" d="M1032.82,1134.8c-16.07-8.52-29.69-21.85-38.31-38.99c-21.16-42.03-3.92-90.82,38.5-109.04
				c417.95-179.29,754.29-4.21,768.39,3.33c42.42,22.63,59.57,73.28,38.31,113.06c-21.16,39.68-72.5,53.49-114.92,31.16
				c-12.05-6.27-277.46-140.3-615.07,4.6C1084.54,1149.59,1056.13,1147.24,1032.82,1134.8"/>
		</g>
		<g id="g36" transform="translate(14.7427,16.4277)">
			<path id="path38" class="st9" d="M1524.64,2445.12c-13.32-12.44-23.12-28.71-27.04-47.61c-9.7-45.95,19.4-88.76,65.15-95.42
				c449.89-66.43,730.09,188.99,741.94,199.86c35.27,32.72,38.7,85.92,8.03,119.04c-30.57,32.92-83.77,33.11-118.94,0.59
				c-10.19-9.01-232.39-206.52-595.87-152.93C1570.78,2472.65,1543.94,2463.15,1524.64,2445.12"/>
		</g>
		<g id="g40" transform="translate(20.4307,25.917)">
			<path id="path42" class="st9" d="M2076.21,1505.94c-15.28-9.6-28.02-23.81-35.47-41.54c-18.32-43.3,2.25-90.92,45.75-106.2
				c429.22-150.48,752.91,47.03,766.53,55.55c40.66,25.47,54.28,77.1,30.47,115.41c-23.71,38.21-76.03,48.5-116.68,23.32
				c-11.76-7.15-267.27-158.81-613.99-37.23C2126.96,1524.26,2098.75,1519.95,2076.21,1505.94"/>
		</g>
		<g id="g28" transform="translate(26,24.5)">
			<path id="path30" class="st10" d="M2616.28,1646.19c0,135.3-87.69,244.93-195.94,244.93c-108.16,0-195.94-109.63-195.94-244.93
				c0-135.2,87.78-244.93,195.94-244.93C2528.6,1401.26,2616.28,1510.99,2616.28,1646.19"/>
		</g>
	</g>
</g>
</svg>
